#N canvas 64 193 453 489 10;
#X obj 121 32 inlet~;
#X obj 131 304 outlet~;
#X floatatom 246 115 5 0 1000 2 DelayT - -;
#X floatatom 286 115 5 0 100 2 Feedbk - -;
#X obj 286 139 * 0.01;
#X obj 252 205 *~ 0;
#X obj 123 264 *~ 1;
#X obj 186 264 *~ 0;
#X floatatom 144 230 5 0 0 0 - - -;
#X floatatom 207 230 5 0 0 0 - - -;
#X obj 105 116 hsl 128 15 0 100 0 0 empty empty empty -2 -8 0 10 -262144
-1 -1 0 1;
#X text 103 100 DRY;
#X text 214 99 WET;
#X obj 102 138 * 0.01;
#X obj 102 193 expr 1-$f1;
#X obj 185 65 delwrite~ \$0-delayline 4000;
#X obj 186 165 delread~ \$0-delayline 4000;
#X connect 0 0 6 0;
#X connect 0 0 15 0;
#X connect 2 0 16 0;
#X connect 3 0 4 0;
#X connect 4 0 5 1;
#X connect 5 0 15 0;
#X connect 6 0 1 0;
#X connect 7 0 1 0;
#X connect 8 0 6 1;
#X connect 9 0 7 1;
#X connect 10 0 13 0;
#X connect 13 0 9 0;
#X connect 13 0 14 0;
#X connect 14 0 8 0;
#X connect 16 0 5 0;
#X connect 16 0 7 0;
#X coords 0 -1 1 1 245 32 2 100 100;
