#N canvas 24 22 1389 802 12;
#X obj 375 -321 delay_unit;
#X obj 673 -285 delay_unit;
#X obj 419 -274 delay_unit;
#X floatatom -150 -631 5 0 0 1 gain - -;
#N canvas 0 22 450 278 (subpatch) 0;
#X array mic 100 float 3;
#A 0 0 0 0 0 0 0 0 0 0 0 0 0 0 0 0 0 0 0 0 0 0 0 0 0 0 0 0 0 0 0 0
0 0 0 0 0 0 0 0 0 0 0 0 0 0 0 0 0 0 0 0 0 0 0 0 0 0 0 0 0 0 0 0 0 0
0 0 0 0 0 0 0 0 0 0 0 0 0 0 0 0 0 0 0 0 0 0 0 0 0 0 0 0 0 0 0 0 0 0
0;
#X coords 0 1 99 -1 200 140 1;
#X restore 227 -644 graph;
#X obj -5 -433 tabwrite~ mic;
#X obj 45 -503 tgl 15 0 empty empty empty 17 7 0 10 -262144 -1 -1 1
1;
#X obj 16 -469 metro 20;
#X floatatom 443 -147 5 0 0 0 - - -;
#X floatatom 739 -240 5 0 0 0 - - -;
#X floatatom 499 -218 5 0 0 0 - - -;
#X obj 467 -182 /~ 1;
#X obj 690 -209 /~ 1;
#X obj 395 -121 /~ 1;
#X obj -206 -630 *~ 1;
#X obj -153 -659 tgl 15 0 empty empty switch 17 7 0 10 -262144 -1 -1
0 1;
#X obj -206 -666 adc~;
#X obj -154 -404 delwrite~ comp 24;
#X obj 605 -675 delread~ comp 24;
#X obj 609 -643 *~;
#X obj -186 -374 env~ 1024;
#X floatatom -181 -331 5 0 0 0 amp - -;
#X obj -180 -301 moses;
#X obj -130 -266 expr (($f1 - $f3) / $f2) + $f3 - $f1;
#X floatatom -7 -335 5 0 0 1 ratio - -;
#X floatatom 120 -321 5 0 0 1 threshold - -;
#X floatatom -90 -221 5 0 0 0 - - -;
#X obj -88 -184 + 100;
#X obj -73 -147 dbtorms;
#X floatatom -71 -104 5 0 0 0 - - -;
#X obj -72 -69 pack 0 5;
#X floatatom 3 -110 5 0 0 1 attack - -;
#X obj -182 -44 line~;
#X obj -181 -182 t b;
#X obj -184 -94 pack 1 5;
#X floatatom -132 -125 5 0 0 2 release - -;
#X obj 376 -378 lop~ 3150;
#X floatatom 450 -410 5 0 0 0 - - -;
#X obj 555 -18 dac~ 1 2 3 4;
#X obj 529 -457 delay_unit;
#X floatatom 676 -406 5 0 0 0 - - -;
#X obj 630 -382 /~ 1;
#X obj 780 -456 delay_unit;
#X floatatom 897 -371 5 0 0 0 - - -;
#X obj 859 -325 /~ 1;
#X obj 178 -221 delay_unit;
#X floatatom 253 -181 5 0 0 0 - - -;
#X obj 216 -145 /~ 1;
#X obj 575 -495 lop~ 3150;
#X floatatom 628 -540 5 0 0 0 - - -;
#X obj 757 -492 lop~ 3150;
#X floatatom 838 -542 5 0 0 0 - - -;
#X obj 180 -265 lop~ 3150;
#X floatatom 254 -297 5 0 0 0 - - -;
#X obj 454 -458 lop~ 3150;
#X floatatom 504 -489 5 0 0 0 - - -;
#X obj 746 -344 lop~ 3150;
#X floatatom 836 -392 5 0 0 0 - - -;
#X floatatom -152 -532 5 0 0 0 - - -;
#X obj -154 -561 env~;
#X obj -198 -434 *~ 1;
#N canvas 0 22 450 278 (subpatch) 0;
#X array snd 1.33953e+06 float 0;
#X coords 0 1 1.33953e+06 -1 200 140 1 0 0;
#X restore 1010 -161 graph;
#X obj 896 -606 soundfiler;
#X obj 1031 -315 bng 15 250 50 0 empty empty empty 17 7 0 10 -262144
-1 -1;
#X obj 1034 -269 tabplay~ snd;
#X msg 896 -645 read -resize mori.wav snd;
#X obj 927 -189 *~ 1;
#X floatatom 982 -216 5 0 0 0 - - -;
#X obj 559 226 arduino;
#X msg 449 82 devices;
#X floatatom 523 36 5 0 0 0 - - -;
#X obj 530 86 t f b;
#X msg 521 124 open \$1;
#X msg 592 126 close;
#X msg 587 47 pinMode 13 1;
#X msg 710 29 close;
#X obj 859 -39 bng 15 250 50 0 empty empty empty 17 7 0 10 -262144
-1 -1;
#X floatatom 868 88 5 0 0 0 - - -;
#X obj 857 54 del 1000;
#X msg 751 115 digital 13 \$1;
#X floatatom 812 63 5 0 0 0 - - -;
#X obj 784 203 bng 15 250 50 0 empty empty empty 17 7 0 10 -262144
-1 -1;
#X floatatom 796 265 5 0 0 0 - - -;
#X obj 786 232 del 1000;
#X floatatom 740 240 5 0 0 0 - - -;
#X obj 768 163 del 1000;
#X msg 738 333 digital 12 \$1;
#X obj 851 145 bng 15 250 50 0 empty empty empty 17 7 0 10 -262144
-1 -1;
#X msg 636 154 pinMode 12 1;
#X obj 568 358 bng 15 250 50 0 empty empty empty 17 7 0 10 -262144
-1 -1;
#X floatatom 590 432 5 0 0 0 - - -;
#X obj 570 387 del 1000;
#X floatatom 534 407 5 0 0 0 - - -;
#X obj 562 330 del 1000;
#X obj 645 312 bng 15 250 50 0 empty empty empty 17 7 0 10 -262144
-1 -1;
#X msg 529 464 digital 11 \$1;
#X obj 713 431 bng 15 250 50 0 empty empty empty 17 7 0 10 -262144
-1 -1;
#X floatatom 735 505 5 0 0 0 - - -;
#X obj 715 460 del 1000;
#X floatatom 679 480 5 0 0 0 - - -;
#X obj 707 403 del 1000;
#X obj 790 385 bng 15 250 50 0 empty empty empty 17 7 0 10 -262144
-1 -1;
#X msg 674 537 digital 10 \$1;
#X obj 544 631 bng 15 250 50 0 empty empty empty 17 7 0 10 -262144
-1 -1;
#X floatatom 566 705 5 0 0 0 - - -;
#X obj 546 660 del 1000;
#X floatatom 510 680 5 0 0 0 - - -;
#X obj 538 603 del 1000;
#X obj 621 585 bng 15 250 50 0 empty empty empty 17 7 0 10 -262144
-1 -1;
#X msg 505 737 digital 9 \$1;
#X obj 876 2 del 1000;
#X obj 2 -587 f;
#X obj 1 -554 sel 1;
#X obj 8 -653 bng 15 250 50 0 empty empty empty 17 7 0 10 -262144 -1
-1;
#X obj 1 -619 metro 30;
#X obj -151 -505 > 95;
#X msg 597 57 pinMode 12 1;
#X msg 607 67 pinMode 11 1;
#X msg 627 87 pinMode 13 1;
#X msg 617 77 pinMode 10 1;
#X connect 0 0 13 0;
#X connect 1 0 12 0;
#X connect 2 0 11 0;
#X connect 3 0 14 1;
#X connect 6 0 7 0;
#X connect 7 0 5 0;
#X connect 8 0 13 1;
#X connect 9 0 12 1;
#X connect 10 0 11 1;
#X connect 11 0 38 1;
#X connect 12 0 38 2;
#X connect 13 0 38 0;
#X connect 14 0 59 0;
#X connect 14 0 60 0;
#X connect 15 0 14 1;
#X connect 16 0 14 0;
#X connect 18 0 19 0;
#X connect 19 0 36 0;
#X connect 19 0 48 0;
#X connect 19 0 50 0;
#X connect 19 0 52 0;
#X connect 19 0 54 0;
#X connect 19 0 56 0;
#X connect 20 0 21 0;
#X connect 21 0 22 0;
#X connect 22 0 33 0;
#X connect 22 1 23 0;
#X connect 23 0 26 0;
#X connect 24 0 23 1;
#X connect 25 0 23 2;
#X connect 25 0 22 1;
#X connect 26 0 27 0;
#X connect 27 0 28 0;
#X connect 28 0 29 0;
#X connect 29 0 30 0;
#X connect 30 0 32 0;
#X connect 31 0 30 1;
#X connect 32 0 19 1;
#X connect 33 0 34 0;
#X connect 34 0 32 0;
#X connect 35 0 34 1;
#X connect 36 0 0 0;
#X connect 37 0 36 1;
#X connect 39 0 41 0;
#X connect 40 0 41 1;
#X connect 41 0 38 1;
#X connect 42 0 44 0;
#X connect 43 0 44 1;
#X connect 44 0 38 2;
#X connect 45 0 47 0;
#X connect 46 0 47 1;
#X connect 47 0 38 0;
#X connect 48 0 39 0;
#X connect 49 0 48 1;
#X connect 50 0 42 0;
#X connect 51 0 50 1;
#X connect 52 0 45 0;
#X connect 53 0 52 1;
#X connect 54 0 2 0;
#X connect 55 0 54 1;
#X connect 56 0 1 0;
#X connect 57 0 56 1;
#X connect 58 0 115 0;
#X connect 59 0 58 0;
#X connect 60 0 20 0;
#X connect 60 0 17 0;
#X connect 60 0 5 0;
#X connect 63 0 64 0;
#X connect 64 0 66 0;
#X connect 64 1 63 0;
#X connect 65 0 62 0;
#X connect 66 0 38 3;
#X connect 67 0 66 1;
#X connect 69 0 68 0;
#X connect 70 0 71 0;
#X connect 71 0 72 0;
#X connect 71 1 73 0;
#X connect 72 0 68 0;
#X connect 73 0 68 0;
#X connect 74 0 68 0;
#X connect 75 0 68 0;
#X connect 76 0 110 0;
#X connect 77 0 79 0;
#X connect 78 0 77 0;
#X connect 79 0 87 0;
#X connect 79 0 68 0;
#X connect 80 0 79 0;
#X connect 81 0 83 0;
#X connect 81 0 84 0;
#X connect 82 0 86 0;
#X connect 83 0 82 0;
#X connect 84 0 86 0;
#X connect 85 0 81 0;
#X connect 86 0 94 0;
#X connect 86 0 68 0;
#X connect 86 0 100 0;
#X connect 87 0 85 0;
#X connect 88 0 68 0;
#X connect 89 0 91 0;
#X connect 89 0 92 0;
#X connect 90 0 95 0;
#X connect 91 0 90 0;
#X connect 92 0 95 0;
#X connect 93 0 89 0;
#X connect 94 0 93 0;
#X connect 95 0 101 0;
#X connect 96 0 98 0;
#X connect 96 0 99 0;
#X connect 97 0 102 0;
#X connect 98 0 97 0;
#X connect 99 0 102 0;
#X connect 100 0 96 0;
#X connect 101 0 100 0;
#X connect 102 0 108 0;
#X connect 103 0 105 0;
#X connect 103 0 106 0;
#X connect 104 0 109 0;
#X connect 105 0 104 0;
#X connect 106 0 109 0;
#X connect 107 0 103 0;
#X connect 108 0 107 0;
#X connect 110 0 78 0;
#X connect 110 0 80 0;
#X connect 111 0 112 0;
#X connect 112 0 76 0;
#X connect 113 0 114 0;
#X connect 114 0 111 0;
#X connect 115 0 60 1;
#X connect 115 0 111 1;
#X connect 116 0 68 0;
#X connect 117 0 68 0;
#X connect 118 0 68 0;
#X connect 119 0 68 0;
